<?xml version="1.0"?>
<svg xmlns="http://www.w3.org/2000/svg" xmlns:xlink="http://www.w3.org/1999/xlink" xmlns:svgjs="http://svgjs.com/svgjs" version="1.1" width="512" height="512" x="0" y="0" viewBox="0 0 510 510" style="enable-background:new 0 0 512 512" xml:space="preserve"><g transform="matrix(0.4,0,0,0.4,153.00001831054686,153.00000915527346)"><linearGradient xmlns="http://www.w3.org/2000/svg" id="lg1"><stop offset="0" stop-color="#eaf6ff"/><stop offset=".5213" stop-color="#d8ecfe"/><stop offset="1" stop-color="#b3dafe"/></linearGradient><linearGradient xmlns="http://www.w3.org/2000/svg" xmlns:xlink="http://www.w3.org/1999/xlink" id="SVGID_1_" gradientUnits="userSpaceOnUse" x1="392.267" x2="487.288" xlink:href="#lg1" y1="68.882" y2="68.882"/><linearGradient xmlns="http://www.w3.org/2000/svg" xmlns:xlink="http://www.w3.org/1999/xlink" id="SVGID_2_" gradientUnits="userSpaceOnUse" x1="277.333" x2="456.687" xlink:href="#lg1" y1="72.419" y2="72.419"/><linearGradient xmlns="http://www.w3.org/2000/svg" id="SVGID_3_" gradientUnits="userSpaceOnUse" x1="-619.215" x2="488.936" y1="255" y2="255"><stop offset="0" stop-color="#fbc56d"/><stop offset=".5841" stop-color="#fe9738"/><stop offset=".9984" stop-color="#fb2b3a"/></linearGradient><linearGradient xmlns="http://www.w3.org/2000/svg" id="lg2"><stop offset="0" stop-color="#fe860a"/><stop offset=".5213" stop-color="#fb2b3a"/><stop offset="1" stop-color="#d90d80"/></linearGradient><linearGradient xmlns="http://www.w3.org/2000/svg" xmlns:xlink="http://www.w3.org/1999/xlink" id="SVGID_4_" gradientUnits="userSpaceOnUse" x1="68.073" x2="623.118" xlink:href="#lg2" y1="255" y2="255"/><linearGradient xmlns="http://www.w3.org/2000/svg" xmlns:xlink="http://www.w3.org/1999/xlink" id="SVGID_5_" gradientUnits="userSpaceOnUse" x1="68.073" x2="623.118" xlink:href="#lg2" y1="360.676" y2="360.676"/><linearGradient xmlns="http://www.w3.org/2000/svg" xmlns:xlink="http://www.w3.org/1999/xlink" id="SVGID_6_" gradientUnits="userSpaceOnUse" x1="68.073" x2="623.118" xlink:href="#lg2" y1="68.882" y2="68.882"/><linearGradient xmlns="http://www.w3.org/2000/svg" xmlns:xlink="http://www.w3.org/1999/xlink" id="SVGID_7_" gradientUnits="userSpaceOnUse" x1="68.073" x2="623.118" xlink:href="#lg2" y1="447.145" y2="447.145"/><linearGradient xmlns="http://www.w3.org/2000/svg" xmlns:xlink="http://www.w3.org/1999/xlink" id="SVGID_8_" gradientUnits="userSpaceOnUse" x1="68.073" x2="623.118" xlink:href="#lg2" y1="176.356" y2="176.356"/><linearGradient xmlns="http://www.w3.org/2000/svg" xmlns:xlink="http://www.w3.org/1999/xlink" id="SVGID_9_" gradientUnits="userSpaceOnUse" x1="68.073" x2="623.118" xlink:href="#lg2" y1="384.025" y2="384.025"/><linearGradient xmlns="http://www.w3.org/2000/svg" xmlns:xlink="http://www.w3.org/1999/xlink" id="SVGID_10_" gradientUnits="userSpaceOnUse" x1="68.073" x2="623.118" xlink:href="#lg2" y1="315.727" y2="315.727"/><linearGradient xmlns="http://www.w3.org/2000/svg" xmlns:xlink="http://www.w3.org/1999/xlink" id="SVGID_11_" gradientUnits="userSpaceOnUse" x1="370.554" x2="510" xlink:href="#lg1" y1="440.277" y2="440.277"/><linearGradient xmlns="http://www.w3.org/2000/svg" xmlns:xlink="http://www.w3.org/1999/xlink" id="SVGID_12_" gradientUnits="userSpaceOnUse" x1="322" x2="466.087" xlink:href="#lg1" y1="440.277" y2="440.277"/><linearGradient xmlns="http://www.w3.org/2000/svg" xmlns:xlink="http://www.w3.org/1999/xlink" id="SVGID_13_" gradientUnits="userSpaceOnUse" x1="322" x2="466.087" xlink:href="#lg1" y1="438.75" y2="438.75"/><linearGradient xmlns="http://www.w3.org/2000/svg" xmlns:xlink="http://www.w3.org/1999/xlink" id="SVGID_14_" gradientUnits="userSpaceOnUse" x1="322" x2="466.087" xlink:href="#lg1" y1="409.25" y2="409.25"/><g xmlns="http://www.w3.org/2000/svg"><circle cx="441.654" cy="68.882" fill="url(#SVGID_1_)" r="50.067" data-original="url(#SVGID_1_)" style=""/><path d="m484.573 94.669c-18.691-26.714-41.92-50.014-68.577-68.781-14.618 8.743-24.41 24.722-24.41 42.994 0 27.651 22.416 50.067 50.067 50.067 18.219 0 34.161-9.733 42.92-24.28z" fill="url(#SVGID_2_)" data-original="url(#SVGID_2_)" style=""/><circle cx="255" cy="255" fill="url(#SVGID_3_)" r="255" data-original="url(#SVGID_3_)" style=""/><g><path d="m255 0c-6.735 0-13.407.266-20.01.778 28.116 2.182 54.953 8.926 79.771 19.49 51.035 21.723 60.257 90.457 16.735 124.84-.353.279-.698.547-1.035.806-30.802 23.632-67.585 45.489-107.902 63.878-11.091 5.059-22.204 9.74-33.281 14.033-8.653 3.354-14.348 11.681-14.348 20.961 0 15.807 15.874 26.699 30.614 20.991 11.901-4.609 23.818-9.628 35.689-15.042 58.218-26.553 110.003-60.175 149.045-96.472 2.109-1.96 5.257-5.159 8.853-8.935 15.12-15.874 41.525-11.164 50.191 8.973.088.206.176.411.264.617 4.388 10.277 2.889 22.179-4.085 30.91-2.76 3.455-5.708 6.94-8.843 10.443-1.684 1.881-3.415 3.758-5.182 5.631-7.28-10.799-19.852-17.735-33.998-17.088-20.924.957-37.061 17.983-36.961 38.929.001.203.003.405.008.607.461 22.876-11.544 44.141-31.406 55.499-5.236 2.994-10.564 5.933-15.979 8.811-9.448 5.022-14.458 15.912-11.543 26.207 3.921 13.847 19.577 20.466 32.203 13.761 24.429-12.973 47.338-27.148 68.182-42.145 28.444-20.464 67.16 5.998 57.894 39.791-.104.38-.209.749-.315 1.108-5.339 18.069-12.635 35.297-21.627 51.451-9.804-5.269-21.001-8.28-32.912-8.28-38.507 0-69.723 31.216-69.723 69.723 0 12.54 3.332 24.293 9.13 34.458-32.538 19.209-69.709 31.403-109.438 34.487 6.602.513 13.274.779 20.009.779 140.833 0 255-114.167 255-255s-114.167-255-255-255z" fill="url(#SVGID_4_)" data-original="url(#SVGID_4_)" style=""/><path d="m258.828 336.515c-4.944-10.406-16.965-15.422-27.815-11.547-48.728 17.404-96.202 27.077-137.247 27.692-1.313.02-2.609.03-3.902.03-36.38-.001-64.264-7.785-78.263-21.438 6.887 22.007 16.678 42.73 28.922 61.723 14.767 3.116 31.241 4.716 49.257 4.716 1.541 0 3.097-.012 4.661-.035 45.77-.686 98.192-11.261 151.531-30.267 12.584-4.485 18.589-18.808 12.856-30.874z" fill="url(#SVGID_5_)" data-original="url(#SVGID_5_)" style=""/><circle cx="281.919" cy="68.882" fill="url(#SVGID_6_)" r="38.781" data-original="url(#SVGID_6_)" style=""/><path d="m243.138 487.641c21.418 0 38.781-17.363 38.781-38.781s-17.363-38.781-38.781-38.781c-10.103 0-19.3 3.866-26.202 10.195-4.414-8.115-13.015-13.624-22.902-13.624-14.389 0-26.053 11.665-26.053 26.054s11.665 26.053 26.053 26.053c3.949 0 7.69-.883 11.044-2.456 3.472 17.857 19.188 31.34 38.06 31.34z" fill="url(#SVGID_7_)" data-original="url(#SVGID_7_)" style=""/><path d="m120.337 245.048c30.151 0 54.593-24.442 54.593-54.593 0-16.143-7.011-30.644-18.149-40.639 3.49-4.432 5.578-10.021 5.578-16.1 0-14.389-11.665-26.054-26.053-26.054s-26.053 11.665-26.053 26.054c0 1.035.067 2.054.185 3.058-25.422 4.66-44.693 26.912-44.693 53.681-.001 30.151 24.441 54.593 54.592 54.593z" fill="url(#SVGID_8_)" data-original="url(#SVGID_8_)" style=""/><path d="m346.754 384.025c0-14.389-11.665-26.054-26.053-26.054s-26.053 11.665-26.053 26.054 11.664 26.053 26.053 26.053 26.053-11.664 26.053-26.053z" fill="url(#SVGID_9_)" data-original="url(#SVGID_9_)" style=""/><path d="m74.7 341.781c14.389 0 26.053-11.665 26.053-26.053 0-14.389-11.665-26.054-26.053-26.054s-26.053 11.665-26.053 26.054c0 14.388 11.664 26.053 26.053 26.053z" fill="url(#SVGID_10_)" data-original="url(#SVGID_10_)" style=""/></g><g><circle cx="440.277" cy="440.277" fill="url(#SVGID_11_)" r="69.723" data-original="url(#SVGID_11_)" style=""/><g><path d="m440.277 370.553c-4.271 0-8.446.405-12.506 1.14 32.536 5.896 57.218 34.347 57.218 68.583 0 11.15-2.632 21.678-7.286 31.021-2.359-10.621-12.135-18.449-23.616-17.755-11.157.674-20.339 9.637-21.257 20.777-.482 5.852 1.252 11.288 4.455 15.56 5.085 6.783 1.517 16.574-6.756 18.422-.912.204-1.832.39-2.757.558 4.059.736 8.234 1.14 12.506 1.14 38.506.001 69.722-31.215 69.722-69.722s-31.216-69.724-69.723-69.724z" fill="url(#SVGID_12_)" data-original="url(#SVGID_12_)" style=""/><circle cx="405.021" cy="438.75" fill="url(#SVGID_13_)" r="14.75" data-original="url(#SVGID_13_)" style=""/><circle cx="449.945" cy="409.25" fill="url(#SVGID_14_)" r="14.75" data-original="url(#SVGID_14_)" style=""/></g></g></g></g></svg>
